<svg height="32" viewBox="0 0 32 32" width="32" xmlns="http://www.w3.org/2000/svg">
  <g fill="none">
    <path d="m16 16 9.36 11.2 5.04-6.4.8-7.2-4.4-8z" fill="#d5d6d6" />
    <path
      d="m16 0c8.836556 0 16 7.163444 16 16s-7.163444 16-16 16-16-7.163444-16-16 7.163444-16 16-16zm-7.91045975 17.2009298-5.63724811-.0000398c.57331398 6.5529228 5.79389508 11.7735039 12.34681786 12.3468179l-.0000398-5.6372482c-3.4568285-.5204032-6.18912672-3.2527014-6.70952995-6.7095299zm21.45816765-.0000398-5.6372482.0000398c-.5204032 3.4568285-3.2527014 6.1891267-6.7095299 6.7095299l-.0000398 5.6372482c6.5529228-.573314 11.7735039-5.7938951 12.3468179-12.3468179zm-14.7487079-.00089-4.2700116.0005341c.4650596 2.1291266 2.1413509 3.8054179 4.2704775 4.2704775zm6.6720116.0005341-4.2710116-.0005341.0005341 4.2710116c2.1291266-.4650596 3.8054179-2.1413509 4.2704775-4.2704775zm-6.6719016-14.74824196c-6.55325613.57334315-11.77403501 5.79442623-12.34690532 12.34781796l5.6371857-.000044c.52002832-3.4572996 3.25251932-6.19007264 6.70967982-6.71052585zm2.40178 0 .0000398 5.63724811c3.4571605.52045321 6.1896515 3.25322625 6.7096798 6.71052585l5.6371857.000044c-.5728703-6.55339173-5.7936492-11.77447481-12.3469053-12.34781796zm-2.4014241 8.07669626c-2.1294589.4651322-3.8059411 2.1418741-4.2706951 4.2714743l4.2702292-.0004627zm2.4010682 0-.0005341 4.2710116 4.2712292.0004627c-.464754-2.1296002-2.1412362-3.8063421-4.2706951-4.2714743z"
      fill="#424242" />
    <g fill="#e41f2b">
      <circle cx="25.2" cy="26.8" r="3.6" />
      <circle cx="7.6" cy="3.6" r="2.8" />
    </g>
  </g>
</svg>
